<?xml version="1.0" encoding="utf-8"?>
<!-- Generator: Adobe Illustrator 21.0.0, SVG Export Plug-In . SVG Version: 6.00 Build 0)  -->
<svg version="1.1" xmlns="http://www.w3.org/2000/svg" xmlns:xlink="http://www.w3.org/1999/xlink" x="0px" y="0px"
	 viewBox="0 0 500 500" style="enable-background:new 0 0 500 500;" xml:space="preserve">
<style type="text/css">
	.st0{display:none;}
	.st1{display:inline;}
	.st2{fill:#FFFFFF;stroke:#30A7E9;stroke-width:7.4841;stroke-linecap:round;stroke-linejoin:round;stroke-miterlimit:10;}
	.st3{fill:#FFFFFF;stroke:#30A7E9;stroke-width:6.3222;stroke-linecap:round;stroke-linejoin:round;stroke-miterlimit:10;}
	.st4{fill:#006E99;}
	.st5{fill:#FFFFFF;stroke:#30A7E9;stroke-width:10.7244;stroke-linecap:round;stroke-linejoin:round;stroke-miterlimit:10;}
	.st6{fill:none;stroke:#30A7E9;stroke-width:30;stroke-linecap:square;stroke-linejoin:round;stroke-miterlimit:10;}
</style>
<g id="Layer_1" class="st0">
	<g class="st1">
		<rect x="86.1" y="10.1" class="st2" width="338.8" height="480.9"/>
		<rect x="113.8" y="38.2" class="st2" width="283.4" height="402.3"/>
		<circle class="st2" cx="255.5" cy="465.2" r="9.8"/>
		<rect x="152.5" y="105.8" class="st2" width="205.9" height="48.8"/>
		<line class="st2" x1="218" y1="197.7" x2="293" y2="197.7"/>
		<line class="st2" x1="161.6" y1="250.6" x2="349.3" y2="250.6"/>
		<line class="st2" x1="161.6" y1="286.5" x2="349.3" y2="286.5"/>
		<line class="st2" x1="161.6" y1="324.5" x2="349.3" y2="324.5"/>
		<line class="st2" x1="161.6" y1="360.5" x2="349.3" y2="360.5"/>
	</g>
</g>
<g id="Layer_2" class="st0">
	<g class="st1">
		<ellipse class="st3" cx="395.6" cy="196.2" rx="53.1" ry="65"/>
		<g>
			<path class="st3" d="M395.6,280.3c-55.4,0-100.4,28.3-100.4,63.2H496C496,308.5,451.1,280.3,395.6,280.3z"/>
		</g>
	</g>
	<g class="st1">
		<ellipse class="st3" cx="106.4" cy="196.2" rx="53.1" ry="65"/>
		<g>
			<path class="st3" d="M106.4,280.3C50.9,280.3,6,308.5,6,343.4h200.7C206.7,308.5,161.8,280.3,106.4,280.3z"/>
		</g>
	</g>
	<g class="st1">
		<ellipse class="st3" cx="251" cy="196.2" rx="53.1" ry="65"/>
		<g>
			<path class="st3" d="M251,280.3c-55.4,0-100.4,28.3-100.4,63.2h200.7C351.4,308.5,306.4,280.3,251,280.3z"/>
		</g>
	</g>
</g>
<g id="Layer_3" class="st0">
	<g class="st1">
		<g>
			<g>
				<polygon class="st4" points="194.8,444.5 471.9,148.1 194.8,314.8 				"/>
				<polygon class="st4" points="8,264.1 471.9,148.1 368.8,373.6 239.9,328.5 194.8,444.5 149.7,296.3 				"/>
				<path class="st4" d="M194.8,444.5"/>
				<polyline class="st4" points="239.9,328.5 471.9,148.1 149.7,296.3 				"/>
				<path class="st4" d="M194.8,444.5"/>
			</g>
		</g>
		<g>
			<polygon class="st5" points="215,387.4 492,91 215,257.7 			"/>
			<polygon class="st5" points="28.1,207 492,91 388.9,316.5 260.1,271.4 215,387.4 169.9,239.2 			"/>
			<path class="st5" d="M215,387.4"/>
			<polyline class="st5" points="260.1,271.4 492,91 169.9,239.2 			"/>
			<path class="st5" d="M215,387.4"/>
		</g>
	</g>
</g>
<g id="Layer_4">
	<line class="st6" x1="65" y1="126" x2="431.2" y2="126"/>
	<line class="st6" x1="65" y1="254" x2="431.2" y2="254"/>
	<line class="st6" x1="65" y1="382" x2="431.2" y2="382"/>
</g>
</svg>
