<?xml version="1.0" encoding="utf-8"?>
<!-- Generator: Adobe Illustrator 21.0.0, SVG Export Plug-In . SVG Version: 6.00 Build 0)  -->
<svg version="1.1" xmlns="http://www.w3.org/2000/svg" xmlns:xlink="http://www.w3.org/1999/xlink" x="0px" y="0px"
	 viewBox="0 0 500 276.2" style="enable-background:new 0 0 500 276.2;" xml:space="preserve">
<style type="text/css">
	.st0{display:none;}
	.st1{display:inline;}
	.st2{fill:#30A7E9;stroke:#FFFFFF;stroke-width:5.5085;stroke-linecap:round;stroke-linejoin:round;stroke-miterlimit:10;}
	.st3{fill:#30A7E9;stroke:#FFFFFF;stroke-width:3.177;stroke-linecap:round;stroke-linejoin:round;stroke-miterlimit:10;}
	.st4{fill:none;stroke:#FFFFFF;stroke-width:3.177;stroke-linecap:round;stroke-linejoin:round;stroke-miterlimit:10;}
	.st5{fill:#FFFFFF;stroke:#30A7E9;stroke-width:5.5085;stroke-linecap:round;stroke-linejoin:round;stroke-miterlimit:10;}
	.st6{fill:#FFFFFF;stroke:#30A7E9;stroke-width:3.9594;stroke-linecap:round;stroke-linejoin:round;stroke-miterlimit:10;}
	.st7{fill:none;stroke:#30A7E9;stroke-width:3.9594;stroke-linecap:round;stroke-linejoin:round;stroke-miterlimit:10;}
	.st8{fill:#006E99;}
	.st9{fill:#FFFFFF;stroke:#30A7E9;stroke-width:3.3866;stroke-linecap:round;stroke-linejoin:round;stroke-miterlimit:10;}
	.st10{fill:#2D2D2D;}
	.st11{fill:none;stroke:#2D2D2D;stroke-width:3.2948;stroke-miterlimit:10;}
	.st12{fill:none;stroke:#2D2D2D;stroke-width:3.2978;stroke-miterlimit:10;}
	.st13{fill:none;stroke:#2D2D2D;stroke-width:3.3076;stroke-miterlimit:10;}
</style>
<g id="Layer_1" class="st0">
	<g id="Layer_1_2_">
		<g id="Layer_1_1_" class="st1">
			<g>
				<g>
					<g>
						<polygon class="st2" points="41,168 151.1,297.9 232.7,228.9 220.2,214.1 233.9,202.5 136.3,87.3 						"/>
						<polygon class="st2" points="232.7,228.9 233.9,202.5 220.2,214.1 						"/>
					</g>
					
						<rect x="72.3" y="146.9" transform="matrix(0.7629 -0.6466 0.6466 0.7629 -74.1508 112.2939)" class="st3" width="87.4" height="20.7"/>
					<line class="st4" x1="122.3" y1="189.4" x2="146.6" y2="168.8"/>
					<line class="st4" x1="118.6" y1="222" x2="179.4" y2="170.5"/>
					<line class="st4" x1="128.5" y1="233.7" x2="189.3" y2="182.2"/>
					<line class="st4" x1="138.9" y1="246" x2="199.7" y2="194.4"/>
					<line class="st4" x1="148.8" y1="257.6" x2="209.6" y2="206.1"/>
				</g>
				<g>
					<g>
						<polygon class="st2" points="274.6,45.4 253.1,214.3 359.1,227.8 361.5,208.7 379.3,211 398.4,61.2 						"/>
						<polygon class="st2" points="359.1,227.8 379.3,211 361.5,208.7 						"/>
					</g>
					
						<rect x="322.8" y="49.7" transform="matrix(0.1264 -0.992 0.992 0.1264 198.3748 412.0853)" class="st3" width="20.7" height="87.4"/>
					<line class="st4" x1="313.7" y1="119.8" x2="345.2" y2="123.9"/>
					<line class="st4" x1="287.1" y1="139.1" x2="366.1" y2="149.2"/>
					<line class="st4" x1="285.2" y1="154.2" x2="364.2" y2="164.3"/>
					<line class="st4" x1="283.1" y1="170.2" x2="362.2" y2="180.3"/>
					<line class="st4" x1="281.2" y1="185.4" x2="360.2" y2="195.4"/>
				</g>
				<g>
					<g>
						<polygon class="st2" points="65.3,111.7 145.5,261.9 239.8,211.6 230.7,194.5 246.6,186.1 175.4,52.8 						"/>
						<polygon class="st2" points="239.8,211.6 246.6,186.1 230.7,194.5 						"/>
					</g>
					
						<rect x="97.1" y="106.6" transform="matrix(0.8821 -0.4711 0.4711 0.8821 -38.4895 80.1159)" class="st3" width="87.4" height="20.7"/>
					<line class="st4" x1="140.3" y1="149.7" x2="168.3" y2="134.8"/>
					<line class="st4" x1="129.7" y1="180.8" x2="200" y2="143.3"/>
					<line class="st4" x1="136.9" y1="194.3" x2="207.2" y2="156.8"/>
					<line class="st4" x1="144.5" y1="208.5" x2="214.8" y2="171"/>
					<line class="st4" x1="151.7" y1="222" x2="222" y2="184.4"/>
				</g>
				<g>
					<g>
						<polygon class="st2" points="207.8,39.6 224.2,209.1 330.5,198.9 328.7,179.7 346.6,177.9 332.1,27.6 						"/>
						<polygon class="st2" points="330.5,198.9 346.6,177.9 328.7,179.7 						"/>
					</g>
					
						<rect x="231.8" y="63.2" transform="matrix(0.9954 -9.600656e-02 9.600656e-02 0.9954 -5.7888 26.7901)" class="st3" width="87.4" height="20.7"/>
					<line class="st4" x1="262.4" y1="103.6" x2="294.1" y2="100.5"/>
					<line class="st4" x1="240.7" y1="128.2" x2="320" y2="120.6"/>
					<line class="st4" x1="242.2" y1="143.4" x2="321.5" y2="135.8"/>
					<line class="st4" x1="243.7" y1="159.4" x2="323.1" y2="151.8"/>
					<line class="st4" x1="245.2" y1="174.6" x2="324.5" y2="167"/>
				</g>
				<g>
					<g>
						<polygon class="st2" points="117.8,52 171.4,213.7 272.9,180.1 266.8,161.8 283.9,156.1 236.3,12.7 						"/>
						<polygon class="st2" points="272.9,180.1 283.9,156.1 266.8,161.8 						"/>
					</g>
					
						<rect x="147.6" y="59.8" transform="matrix(0.9492 -0.3147 0.3147 0.9492 -12.3581 63.7659)" class="st3" width="87.4" height="20.7"/>
					<line class="st4" x1="185.3" y1="102.3" x2="215.5" y2="92.3"/>
					<line class="st4" x1="169.6" y1="131.1" x2="245.2" y2="106.1"/>
					<line class="st4" x1="174.4" y1="145.6" x2="250.1" y2="120.6"/>
					<line class="st4" x1="179.5" y1="160.9" x2="255.1" y2="135.8"/>
					<line class="st4" x1="184.3" y1="175.4" x2="259.9" y2="150.3"/>
				</g>
			</g>
			<path class="st2" d="M441.3,448.7c0,9.2-8.3,16.6-18.5,16.6H54.5c-10.2,0-18.5-7.4-18.5-16.6V265.5c0-9.2,8.3-16.6,18.5-16.6
				h368.3c10.2,0,18.5,7.4,18.5,16.6V448.7z"/>
			<path class="st2" d="M468.9,468.4c0,10.2-8.3,18.5-18.5,18.5H26.9c-10.2,0-18.5-8.3-18.5-18.5c0,0,35.8-5,46.1-5h368.3
				C433,463.4,468.9,468.4,468.9,468.4z"/>
			<path class="st5" d="M441.3,357.1"/>
			<path class="st5" d="M431.5,435.9c0,8.2-7.9,14.9-17.6,14.9H63.4c-9.7,0-17.6-6.6-17.6-14.9V272.3c0-8.2,7.9-14.9,17.6-14.9
				h350.5c9.7,0,17.6,6.6,17.6,14.9V435.9z"/>
			<rect x="185.1" y="286.7" class="st6" width="108.9" height="25.8"/>
			<line class="st7" x1="219.7" y1="335.3" x2="259.4" y2="335.3"/>
			<line class="st7" x1="189.9" y1="363.3" x2="289.2" y2="363.3"/>
			<line class="st7" x1="189.9" y1="382.3" x2="289.2" y2="382.3"/>
			<line class="st7" x1="189.9" y1="402.4" x2="289.2" y2="402.4"/>
			<line class="st7" x1="189.9" y1="421.4" x2="289.2" y2="421.4"/>
			<g>
				<g>
					<g>
						<polygon class="st8" points="399,329.5 486.5,236 399,288.6 						"/>
						<polygon class="st8" points="340,272.6 486.5,236 453.9,307.2 413.2,292.9 399,329.5 384.7,282.8 						"/>
						<path class="st8" d="M399,329.5"/>
						<polyline class="st8" points="413.2,292.9 486.5,236 384.7,282.8 						"/>
						<path class="st8" d="M399,329.5"/>
					</g>
				</g>
				<g>
					<polygon class="st9" points="405.3,311.5 492.8,217.9 405.3,270.6 					"/>
					<polygon class="st9" points="346.3,254.6 492.8,217.9 460.3,289.1 419.6,274.9 405.3,311.5 391.1,264.7 					"/>
					<path class="st9" d="M405.3,311.5"/>
					<polyline class="st9" points="419.6,274.9 492.8,217.9 391.1,264.7 					"/>
					<path class="st9" d="M405.3,311.5"/>
				</g>
			</g>
		</g>
		<g id="Layer_2" class="st1">
			<g>
				<g>
					<path class="st10" d="M85.2,123.9H62v-66h3.1v62.9h20.2v3.1H85.2z"/>
					<path class="st10" d="M130.7,57.9v3h-20.6v28.4h17.7v3h-17.7v28.5h20.6v3H107v-66L130.7,57.9L130.7,57.9z"/>
					<path class="st10" d="M178.4,103.7H161l-4.5,20.2h-3.1l5.2-22.9v-0.3l10-42.8h2.4l15.1,66H183L178.4,103.7z M161.8,100.7h16
						l-8-34.5L161.8,100.7z"/>
					<path class="st10" d="M208.6,123.9v-66h11.3c10.5,0,15.3,6.1,15.3,17.8V106c0,11.7-4.8,17.8-15.3,17.8L208.6,123.9L208.6,123.9
						z M211.6,61v59.9h8.2c8.5,0,12.1-4.6,12.1-14.8V75.7c0-10.2-3.6-14.8-12.1-14.8h-8.2V61z"/>
					<path class="st10" d="M291.8,115.2l8.5-57.3h3.2l-10.5,66h-2.5l-9.7-57.3l-9.7,57.3h-2.4l-10.7-66h3.1l8.8,57.3l9.7-57.3h2.4
						L291.8,115.2z"/>
					<path class="st10" d="M328.9,123.9h-3v-66h3V123.9z"/>
					<path class="st10" d="M352.9,104.9h3v1.5c0,6.6,1.7,10.1,3.8,12c2.2,2,4.9,2.3,7.2,2.3c7,0,11.1-2.9,11.1-11.6
						c0-14.7-25.2-18.7-25.2-35.7c0-9.9,5.1-15.6,14.1-15.6c9.3,0,14.2,6.2,14.2,17.5v1.6H378v-1.6c0-9.9-3.6-14.4-11.1-14.4
						c-7,0-11.1,3.6-11.1,12.1c0,15.7,25.2,18.8,25.2,35.7c0,9.8-5.1,15-14.2,15c-9.4,0-14.1-5.8-14.1-17.4v-1.4
						C352.7,104.9,352.9,104.9,352.9,104.9z"/>
					<path class="st10" d="M427.3,57.9v3h-20.6v28.4h17.7v3h-17.7v28.5h20.6v3h-23.7v-66L427.3,57.9L427.3,57.9z"/>
				</g>
				<g>
					<polyline class="st11" points="5.2,130.8 5.2,172 494.4,172 494.4,130.8 					"/>
					<polyline class="st11" points="494.4,40.2 494.4,5.6 5.2,5.6 5.2,40.2 					"/>
				</g>
			</g>
			<g>
				<path class="st10" d="M31.2,251.8H18.9l-4.5,19.7H5.2l16.3-70.6h7.2l16.5,70.6h-9.4L31.2,251.8z M21,242.8h8l-4-17.3L21,242.8z"
					/>
				<path class="st10" d="M79.6,221c0-6.2,1.3-11.1,4-14.6c2-2.6,5.8-5.6,12.7-5.6c6.9,0,10.6,3,12.6,5.6c2.8,3.5,4.1,8.3,4.1,14.6
					v4.5h-9V221c0-5.5-1.2-8.4-2.8-9.8c-1.6-1.3-3.6-1.3-4.9-1.3c-1.4,0-3.3,0-4.9,1.3s-2.9,4.3-2.9,9.8v30.3c0,4.1,0.8,7.2,2.2,9
					c0.3,0.5,0.9,1,1.7,1.4c0.9,0.5,2.1,0.8,3.8,0.8c3.5,0,4.8-1.3,5.6-2.2c1.4-1.9,2.1-4.9,2.1-9v-4.5h9.1v4.5
					c0,6.2-1.3,11-4.1,14.6c-2,2.6-5.7,5.7-12.6,5.7c-3.4,0-6-0.8-8.1-1.9s-3.5-2.5-4.6-3.7c-2.7-3.4-4-8.3-4-14.6
					C79.6,251.4,79.6,221,79.6,221z"/>
				<path class="st10" d="M175.4,251.8h-12.3l-4.5,19.7h-9.3l16.3-70.6h7.2l16.5,70.6h-9.4L175.4,251.8z M165.2,242.8h8l-4-17.3
					L165.2,242.8z"/>
				<path class="st10" d="M223.8,271.5v-70.6h14.1c12.2,0,17.9,7.5,17.9,20.4V251c0,12.9-5.7,20.5-17.9,20.5H223.8z M232.8,209.9
					v52.6h5.1c2.3,0,4.5-0.3,6.1-1.8c1.5-1.5,2.7-4.4,2.7-9.7v-29.7c0-5.3-1.1-8.1-2.7-9.7c-1.6-1.5-3.8-1.7-6.1-1.7L232.8,209.9
					L232.8,209.9z"/>
				<path class="st10" d="M323.1,200.9v9h-20.2v21.7h20.2v9h-20.2v21.8h20.2v9h-29.2v-70.6h29.2V200.9z"/>
				<path class="st10" d="M380.9,271.4l-9.8-33.8v33.8h-9v-70.6h8l14.3,49.7l14.2-49.7h8v70.6h-9v-33.8l-9.8,33.8H380.9z"/>
				<path class="st10" d="M467.9,226.8l14.4-25.9h10.3l-20.2,36.4v34.2h-9v-34.2l-20.1-36.4h10.3L467.9,226.8z"/>
			</g>
		</g>
	</g>
	<g id="Layer_2_1_">
		<g class="st1">
			<g>
				<path class="st10" d="M84.8,123.2H61.5v-66h3.1v63h20.2V123.2z"/>
				<path class="st10" d="M130.4,57.2v3h-20.7v28.4h17.7v3h-17.7v28.5h20.7v3h-23.7v-66h23.7V57.2z"/>
				<path class="st10" d="M178.1,103h-17.4l-4.5,20.2H153l5.2-22.9V100l10-42.8h2.4l15.1,66h-3.1L178.1,103z M161.4,100h16l-8-34.5
					L161.4,100z"/>
				<path class="st10" d="M208.3,123.2v-66h11.3c10.5,0,15.3,6.1,15.3,17.8v30.4c0,11.8-4.8,17.8-15.3,17.8H208.3z M211.3,60.2v59.9
					h8.2c8.5,0,12.1-4.6,12.1-14.8V75c0-10.2-3.6-14.8-12.1-14.8H211.3z"/>
				<path class="st10" d="M291.6,114.5l8.5-57.3h3.2l-10.5,66h-2.5l-9.7-57.3l-9.7,57.3h-2.4l-10.7-66h3.1l8.8,57.3l9.7-57.3h2.4
					L291.6,114.5z"/>
				<path class="st10" d="M328.8,123.2h-3v-66h3V123.2z"/>
				<path class="st10" d="M352.7,104.2h3v1.5c0,6.6,1.7,10.1,3.8,12c2.2,2,4.9,2.4,7.2,2.4c7.1,0,11.1-2.9,11.1-11.7
					c0-14.7-25.2-18.7-25.2-35.8c0-9.9,5.1-15.6,14.1-15.6c9.3,0,14.2,6.2,14.2,17.5v1.6h-3.1v-1.6c0-9.9-3.6-14.4-11.1-14.4
					c-7.1,0-11.1,3.6-11.1,12.1c0,15.7,25.3,18.8,25.3,35.8c0,9.8-5.1,15-14.2,15c-9.4,0-14.1-5.8-14.1-17.4v-1.4H352.7z"/>
				<path class="st10" d="M427.2,57.2v3h-20.7v28.4h17.7v3h-17.7v28.5h20.7v3h-23.7v-66h23.7V57.2z"/>
			</g>
			<g>
				<polyline class="st12" points="4.7,130.1 4.7,171.3 494.4,171.3 494.4,130.1 				"/>
				<polyline class="st12" points="494.4,39.4 494.4,4.8 4.7,4.8 4.7,39.4 				"/>
			</g>
		</g>
		<g class="st1">
			<path class="st10" d="M30.9,270.8L13.6,228v42.8h-9v-70.7h7.6l17.3,42.8v-42.8h9.1v70.7H30.9z"/>
			<path class="st10" d="M83.3,200.3v9H63.1V231h20.2v9H63.1v21.9h20.2v9H54.1v-70.7h29.2V200.3z"/>
			<path class="st10" d="M144.8,245.3l10-45.1h9.3l-15.6,70.7h-7.3l-9.9-45.2l-10,45.2H114l-15.6-70.7h9.3l10,45.1l10-45.1h7.3
				L144.8,245.3z"/>
			<path class="st10" d="M176,246.3h9v4.5c0,4.1,0.8,7.1,2.2,8.9c0.3,0.5,0.9,0.9,1.7,1.3c0.9,0.5,2.1,0.8,3.9,0.8
				c3.4,0,5.4-1.7,6.5-3.8c1.1-2.1,1.2-4.8,1.2-6.7c0-3.4-1.1-5.6-2.8-7.2c-1.6-1.5-3.8-2.6-5.8-3.4l-1.7-0.8
				c-2-0.9-5.5-2.3-8.5-5.3c-3.8-3.7-5.8-8.4-5.8-14.2c0-6,1.6-11.1,4.7-14.7c3-3.4,7.2-5.6,12.2-5.6c6.9,0,10.7,3,12.7,5.6
				c2.8,3.5,4.1,8.4,4.1,14.7v4.5h-9.1v-4.5c0-5.5-1.2-8.4-2.9-9.8c-1.6-1.3-3.6-1.3-4.9-1.3c-3.7,0-5.6,2-6.6,4.5
				c-1.1,2.5-1.2,5.4-1.2,6.6c0,3.4,1.1,5.6,2.8,7.3c1.6,1.7,3.8,3,6.1,3.8l1.5,0.7c1.8,0.8,5.3,2,8.3,5c3.9,3.6,5.9,8.3,5.9,14.1
				c0,10.8-6,19.6-16.9,19.6c-11.2,0-16.9-7.4-16.9-20v-4.6H176z"/>
			<path class="st10" d="M253.5,270.8h-30.8v-70.7h9v61.6h21.8V270.8z"/>
			<path class="st10" d="M294.7,200.3v9h-20.2V231h20.2v9h-20.2v21.9h20.2v9h-29.2v-70.7h29.2V200.3z"/>
			<path class="st10" d="M309.8,200.2h40v9.1h-15.4v61.6h-9.1v-61.6h-15.4v-9.1H309.8z"/>
			<path class="st10" d="M362.6,200.2h40v9.1h-15.4v61.6H378v-61.6h-15.4V200.2z"/>
			<path class="st10" d="M444.7,200.3v9h-20.2V231h20.2v9h-20.2v21.9h20.2v9h-29.2v-70.7h29.2V200.3z"/>
			<path class="st10" d="M492.5,270.8h-9.1v-20.9c0-6.2-3-9.3-9-9.3h-5.7v30.2h-9v-70.7h14.7c12.2,0,17.9,7,17.9,20.1
				c0,6.5-1.4,11.5-4.2,14.9c-0.1,0.1-0.3,0.3-0.4,0.5c-0.2,0.2-0.4,0.4-0.6,0.5c3.4,3.4,5.4,8,5.4,13.8L492.5,270.8L492.5,270.8z
				 M468.8,231.5h5.7c2.4,0,4.1-0.3,5.1-0.9c0.9-0.6,1.4-1.1,1.7-1.3c1.4-1.8,2.1-4.8,2.1-9c0-4.7-0.8-7.5-2.2-9.1
				c-1.5-1.5-3.7-1.9-6.7-1.9h-5.7V231.5z"/>
		</g>
	</g>
	<g id="Layer_3" class="st1">
		<g>
			<g>
				<path class="st10" d="M84.8,123.2H61.5v-66h3.1v63h20.2V123.2z"/>
				<path class="st10" d="M130.4,57.2v3h-20.7v28.4h17.7v3h-17.7v28.5h20.7v3h-23.7v-66h23.7V57.2z"/>
				<path class="st10" d="M178.1,103h-17.4l-4.5,20.2H153l5.2-22.9V100l10-42.8h2.4l15.1,66h-3.1L178.1,103z M161.4,100h16l-8-34.5
					L161.4,100z"/>
				<path class="st10" d="M208.3,123.2v-66h11.3c10.5,0,15.3,6.1,15.3,17.8v30.4c0,11.8-4.8,17.8-15.3,17.8H208.3z M211.3,60.2v59.9
					h8.2c8.5,0,12.1-4.6,12.1-14.8V75c0-10.2-3.6-14.8-12.1-14.8H211.3z"/>
				<path class="st10" d="M291.6,114.5l8.5-57.3h3.2l-10.5,66h-2.5l-9.7-57.3l-9.7,57.3h-2.4l-10.7-66h3.1l8.8,57.3l9.7-57.3h2.4
					L291.6,114.5z"/>
				<path class="st10" d="M328.8,123.2h-3v-66h3V123.2z"/>
				<path class="st10" d="M352.7,104.2h3v1.5c0,6.6,1.7,10.1,3.8,12c2.2,2,4.9,2.4,7.2,2.4c7.1,0,11.1-2.9,11.1-11.7
					c0-14.7-25.2-18.7-25.2-35.8c0-9.9,5.1-15.6,14.1-15.6c9.3,0,14.2,6.2,14.2,17.5v1.6h-3.1v-1.6c0-9.9-3.6-14.4-11.1-14.4
					c-7.1,0-11.1,3.6-11.1,12.1c0,15.7,25.3,18.8,25.3,35.8c0,9.8-5.1,15-14.2,15c-9.4,0-14.1-5.8-14.1-17.4v-1.4H352.7z"/>
				<path class="st10" d="M427.2,57.2v3h-20.7v28.4h17.7v3h-17.7v28.5h20.7v3h-23.7v-66h23.7V57.2z"/>
			</g>
			<g>
				<polyline class="st12" points="4.7,130.1 4.7,171.3 494.4,171.3 494.4,130.1 				"/>
				<polyline class="st12" points="494.4,39.4 494.4,4.8 4.7,4.8 4.7,39.4 				"/>
			</g>
		</g>
		<g>
			<path class="st10" d="M13.7,240.1v30.8h-9v-70.7h14.7c12,0,18,7.2,18,19.8c0,12.9-5.8,20-18,20h-5.7V240.1z M13.7,209.3V231h5.7
				c2.5,0,4.2-0.3,5.1-0.9c0.9-0.6,1.4-1.1,1.7-1.3c1.4-1.4,2.1-4.4,2.1-8.7c0-4.6-0.8-7.3-2.2-8.8c-1.5-1.5-3.7-1.9-6.7-1.9h-5.7
				V209.3z"/>
			<path class="st10" d="M77.5,220.3c0-6.2,1.3-11.1,4-14.6c1.1-1.2,2.5-2.6,4.6-3.7c2.1-1.1,4.7-1.8,8.1-1.8c6.9,0,10.7,3,12.8,5.6
				c2.7,3.4,4,8.3,4,14.6v30.4c0,6.2-1.3,11.1-4,14.6c-2,2.6-5.8,5.6-12.8,5.6c-6.8,0-10.7-3-12.7-5.6c-2.7-3.4-4-8.3-4-14.6V220.3z
				 M86.5,250.7c0,5.7,1.2,8.3,2.9,9.7c1.6,1.3,3.4,1.4,4.9,1.4c1.2,0,3.3-0.1,4.9-1.4s2.9-4,2.9-9.7v-30.4c0-5.5-1.2-8.3-2.9-9.7
				c-1.6-1.3-3.6-1.3-4.9-1.3c-1.4,0-3.3,0-4.9,1.3s-2.9,4.2-2.9,9.7V250.7z"/>
			<path class="st10" d="M152.2,270.9v-70.7h14.1c12.2,0,17.9,7.5,17.9,20.4v29.7c0,12.9-5.8,20.5-17.9,20.5h-14.1V270.9z
				 M161.3,209.3v52.6h5.1c2.3,0,4.5-0.3,6.1-1.8c1.5-1.5,2.7-4.4,2.7-9.7v-29.7c0-5.3-1.1-8.2-2.7-9.7c-1.6-1.5-3.8-1.7-6.1-1.7
				L161.3,209.3L161.3,209.3z"/>
			<path class="st10" d="M225.8,220.4c0-6.2,1.3-11.1,4-14.6c2-2.6,5.8-5.6,12.7-5.6s10.6,3,12.7,5.6c2.8,3.5,4.1,8.3,4.1,14.6v4.5
				h-9.1v-4.5c0-5.5-1.2-8.4-2.8-9.8c-1.6-1.3-3.6-1.3-4.9-1.3c-1.4,0-3.3,0-4.9,1.3c-1.6,1.3-2.9,4.3-2.9,9.8v30.3
				c0,4.1,0.8,7.2,2.2,9c0.3,0.5,0.9,1,1.7,1.4s2.1,0.8,3.8,0.8c3.5,0,4.8-1.3,5.6-2.2c1.4-1.9,2.1-4.9,2.1-9v-4.5h9.1v4.5
				c0,6.2-1.3,11-4.1,14.6c-2,2.6-5.8,5.7-12.7,5.7c-3.4,0-6-0.8-8.1-1.9s-3.5-2.5-4.6-3.7c-2.7-3.4-4-8.3-4-14.6v-30.4H225.8z"/>
			<path class="st10" d="M325,251.2h-12.3l-4.5,19.7h-9.3l16.3-70.7h7.2l16.5,70.7h-9.4L325,251.2z M314.9,242.2h8.1l-4-17.4
				L314.9,242.2z"/>
			<path class="st10" d="M376.8,246.3h9v4.5c0,4.1,0.8,7.1,2.2,8.9c0.3,0.5,0.9,0.9,1.7,1.3c0.9,0.5,2.1,0.8,3.9,0.8
				c3.4,0,5.4-1.7,6.5-3.8c1.1-2.1,1.2-4.8,1.2-6.7c0-3.4-1.1-5.6-2.8-7.2c-1.6-1.5-3.8-2.6-5.8-3.4l-1.7-0.8
				c-2-0.9-5.5-2.3-8.5-5.3c-3.8-3.7-5.8-8.4-5.8-14.2c0-6,1.6-11.1,4.7-14.7c3-3.4,7.2-5.6,12.2-5.6c6.9,0,10.7,3,12.7,5.6
				c2.8,3.5,4.1,8.4,4.1,14.7v4.5h-9.1v-4.5c0-5.5-1.2-8.4-2.9-9.8c-1.6-1.3-3.6-1.3-4.9-1.3c-3.7,0-5.6,2-6.6,4.5
				c-1.1,2.5-1.2,5.4-1.2,6.6c0,3.4,1.1,5.6,2.8,7.3c1.6,1.7,3.8,3,6.1,3.8l1.5,0.7c1.8,0.8,5.3,2,8.3,5c3.9,3.6,5.9,8.3,5.9,14.1
				c0,10.8-6,19.6-16.9,19.6c-11.2,0-16.9-7.4-16.9-20v-4.6H376.8z"/>
			<path class="st10" d="M450.8,200.2h40v9.1h-15.4v61.6h-9.1v-61.6h-15.4v-9.1H450.8z"/>
		</g>
	</g>
</g>
<g id="Layer_2_2_">
	<g>
		<g>
			<path class="st10" d="M84.3,122.7H61V56.5h3.1v63.2h20.2V122.7z"/>
			<path class="st10" d="M130,56.5v3h-20.7V88h17.8v3h-17.8v28.6H130v3h-23.8V56.5H130z"/>
			<path class="st10" d="M177.9,102.5h-17.5l-4.5,20.2h-3.1l5.2-23v-0.3l10-42.9h2.5l15.1,66.2h-3.1L177.9,102.5z M161.2,99.4h16
				l-8.1-34.6L161.2,99.4z"/>
			<path class="st10" d="M208.1,122.7V56.5h11.3c10.5,0,15.3,6.1,15.3,17.9v30.5c0,11.8-4.8,17.9-15.3,17.9H208.1z M211.2,59.6v60.1
				h8.2c8.5,0,12.2-4.6,12.2-14.8V74.4c0-10.2-3.6-14.8-12.2-14.8H211.2z"/>
			<path class="st10" d="M291.7,114l8.5-57.5h3.2L293,122.7h-2.6l-9.7-57.5l-9.7,57.5h-2.5l-10.7-66.2h3.1l8.8,57.5l9.7-57.5h2.5
				L291.7,114z"/>
			<path class="st10" d="M329,122.7h-3V56.5h3V122.7z"/>
			<path class="st10" d="M353.1,103.7h3v1.5c0,6.6,1.7,10.1,3.8,12.1c2.2,2,4.9,2.4,7.3,2.4c7.1,0,11.1-2.9,11.1-11.7
				c0-14.7-25.2-18.8-25.2-35.9c0-9.9,5.1-15.6,14.1-15.6c9.3,0,14.2,6.2,14.2,17.6v1.6h-3.1V74c0-9.9-3.6-14.4-11.1-14.4
				c-7.1,0-11.1,3.6-11.1,12.2c0,15.7,25.3,18.9,25.3,35.9c0,9.8-5.1,15-14.2,15c-9.4,0-14.1-5.8-14.1-17.5V103.7z"/>
			<path class="st10" d="M427.7,56.5v3H407V88h17.8v3H407v28.6h20.7v3h-23.8V56.5H427.7z"/>
		</g>
		<g>
			<polyline class="st13" points="3.9,129.6 3.9,171 495.1,171 495.1,129.6 			"/>
			<polyline class="st13" points="495.1,38.7 495.1,4 3.9,4 3.9,38.7 			"/>
		</g>
	</g>
	<g>
		<path class="st10" d="M13,239.9v30.9h-9v-70.9h14.7c12,0,18.1,7.2,18.1,19.9c0,13-5.9,20.1-18.1,20.1H13z M13,209.1v21.7h5.7
			c2.5,0,4.2-0.3,5.1-0.9c0.9-0.6,1.4-1.1,1.7-1.3c1.4-1.4,2.1-4.4,2.1-8.8c0-4.6-0.8-7.3-2.2-8.8c-1.5-1.5-3.8-1.9-6.7-1.9H13z"/>
		<path class="st10" d="M97.4,270.8h-9.1v-21c0-6.3-3-9.3-9-9.3h-5.7v30.3h-9v-70.9h14.7c12.2,0,18,7,18,20.2
			c0,6.5-1.4,11.5-4.2,14.9c-0.1,0.1-0.3,0.3-0.4,0.5c-0.2,0.2-0.4,0.4-0.6,0.5c3.5,3.4,5.4,8,5.4,13.8V270.8z M73.6,231.4h5.7
			c2.4,0,4.1-0.3,5.1-0.9c0.9-0.6,1.4-1.1,1.7-1.3c1.4-1.8,2.1-4.8,2.1-9c0-4.7-0.8-7.5-2.2-9.1c-1.5-1.5-3.8-1.9-6.7-1.9h-5.7
			V231.4z"/>
		<path class="st10" d="M128.3,220.1c0-6.3,1.3-11.2,4-14.6c1.1-1.3,2.5-2.6,4.6-3.8c2.1-1.1,4.7-1.8,8.2-1.8c6.9,0,10.8,3,12.8,5.6
			c2.7,3.5,4,8.4,4,14.6v30.5c0,6.3-1.3,11.2-4,14.6c-2,2.6-5.9,5.6-12.8,5.6c-6.8,0-10.8-3-12.8-5.6c-2.7-3.5-4-8.4-4-14.6V220.1z
			 M137.3,250.6c0,5.7,1.2,8.4,2.9,9.7c1.6,1.3,3.5,1.4,4.9,1.4c1.3,0,3.3-0.1,4.9-1.4c1.6-1.3,2.9-4,2.9-9.7v-30.5
			c0-5.5-1.3-8.4-2.9-9.7c-1.6-1.3-3.7-1.3-4.9-1.3c-1.4,0-3.3,0-4.9,1.3c-1.6,1.3-2.9,4.2-2.9,9.7V250.6z"/>
		<path class="st10" d="M190.9,220.1c0-12.7,5.7-20.1,16.8-20.1c11.3,0,16.9,7.4,16.9,20.1v4.5h-9.1v-4.5c0-5.1-1-7.9-2.4-9.4
			c-1.5-1.4-3.5-1.6-5.4-1.6c-1.9,0-3.8,0.2-5.3,1.6c-1.5,1.5-2.5,4.3-2.5,9.4v30.6c0,5.7,1.2,8.4,2.9,9.7c1.6,1.3,3.5,1.4,4.9,1.4
			c1.4,0,3.4-0.1,5-1.4c1.5-1.3,2.8-4,2.8-9.7v-5.4h-11v-9.1h20.1v14.5c0,6.3-1.3,11.3-4.1,14.6c-2,2.6-5.9,5.6-12.8,5.6
			c-6.8,0-10.7-3-12.7-5.6c-2.8-3.4-4.1-8.3-4.1-14.6V220.1z"/>
		<path class="st10" d="M287.2,270.8H278v-21c0-6.3-3-9.3-9-9.3h-5.7v30.3h-9v-70.9H269c12.2,0,18,7,18,20.2
			c0,6.5-1.4,11.5-4.2,14.9c-0.1,0.1-0.3,0.3-0.4,0.5c-0.2,0.2-0.4,0.4-0.6,0.5c3.5,3.4,5.4,8,5.4,13.8V270.8z M263.3,231.4h5.7
			c2.4,0,4.1-0.3,5.1-0.9c0.9-0.6,1.4-1.1,1.7-1.3c1.4-1.8,2.1-4.8,2.1-9c0-4.7-0.8-7.5-2.2-9.1c-1.5-1.5-3.8-1.9-6.7-1.9h-5.7
			V231.4z"/>
		<path class="st10" d="M344.2,251.1h-12.3l-4.5,19.8H318l16.3-70.9h7.2l16.5,70.9h-9.4L344.2,251.1z M334,242.1h8.1l-4-17.4
			L334,242.1z"/>
		<path class="st10" d="M402.6,270.8l-9.8-33.9v33.9h-9v-70.9h8l14.3,49.9l14.2-49.9h8v70.9h-9v-33.9l-9.8,33.9H402.6z"/>
		<path class="st10" d="M459.1,246.2h9v4.5c0,4.1,0.8,7.1,2.2,8.9c0.3,0.5,0.9,0.9,1.7,1.3c0.9,0.5,2.1,0.8,3.9,0.8
			c3.5,0,5.4-1.7,6.5-3.8c1.1-2.1,1.2-4.8,1.2-6.7c0-3.4-1.2-5.6-2.8-7.2c-1.6-1.5-3.8-2.6-5.9-3.5l-1.7-0.8c-2-0.9-5.5-2.3-8.6-5.3
			c-3.8-3.7-5.8-8.5-5.8-14.2c0-6.1,1.6-11.2,4.7-14.7c3-3.5,7.2-5.6,12.2-5.6c6.9,0,10.8,3,12.8,5.6c2.8,3.6,4.1,8.5,4.1,14.7v4.5
			h-9.1v-4.5c0-5.5-1.2-8.5-2.9-9.8c-1.6-1.3-3.7-1.3-4.9-1.3c-3.8,0-5.6,2-6.6,4.5c-1.2,2.5-1.2,5.4-1.2,6.6c0,3.4,1.2,5.6,2.8,7.3
			c1.6,1.7,3.8,3,6.2,3.8l1.5,0.7c1.8,0.8,5.3,2,8.4,5c3.9,3.7,6,8.4,6,14.1c0,10.9-6.1,19.6-16.9,19.6c-11.3,0-16.9-7.4-16.9-20.1
			V246.2z"/>
	</g>
</g>
</svg>
