<?xml version="1.0" encoding="utf-8"?>
<!-- Generator: Adobe Illustrator 21.0.0, SVG Export Plug-In . SVG Version: 6.00 Build 0)  -->
<svg version="1.1" xmlns="http://www.w3.org/2000/svg" xmlns:xlink="http://www.w3.org/1999/xlink" x="0px" y="0px"
	 viewBox="0 0 100 100" style="enable-background:new 0 0 100 100;" xml:space="preserve">
<style type="text/css">
	.st0{display:none;}
	.st1{display:inline;}
	.st2{fill:#FFFFFF;stroke:#30A7E9;stroke-linecap:round;stroke-linejoin:round;stroke-miterlimit:10;}
	.st3{fill:none;stroke:#30A7E9;stroke-linecap:round;stroke-linejoin:round;stroke-miterlimit:10;}
	.st4{fill:#FFFFFF;stroke:#30A7E9;stroke-width:1.5;stroke-linecap:round;stroke-linejoin:round;stroke-miterlimit:10;}
	
		.st5{display:inline;fill:#FFFFFF;stroke:#30A7E9;stroke-width:1.5;stroke-linecap:round;stroke-linejoin:round;stroke-miterlimit:10;}
	.st6{fill:none;stroke:#30A7E9;stroke-width:3.9928;stroke-linecap:round;stroke-linejoin:round;stroke-miterlimit:10;}
</style>
<g id="Layer_1" class="st0">
	<g id="Change_Work">
		<g class="st1">
			<g>
				<g>
					<path class="st2" d="M34,56.1c3.1-8.7,3.6-22.6,16.5-22.8c11.3-0.2,14,12.3,17.3,22.2c4.4,13.2-6.2,22.6-16.5,22.8
						C40.7,78.5,29.7,68.5,34,56.1z"/>
					<path class="st2" d="M41.6,27.4c0-1.4,1.1-2.6,2.5-2.6l11.7-0.2c1.4,0,2.6,1.1,2.6,2.5v0.3c0,1.4-1.1,2.6-2.5,2.6l-11.7,0.2
						c-1.4,0-2.6-1.1-2.6-2.5V27.4z"/>
					<path class="st2" d="M41.4,19.6c0-1.4,1.1-2.6,2.5-2.6l11.7-0.2c1.4,0,2.6,1.1,2.6,2.5v0.3c0,1.4-1.1,2.6-2.5,2.6L44,22.4
						c-1.4,0-2.6-1.1-2.6-2.5V19.6z"/>
					<path class="st2" d="M41.3,11.8c0-1.4,1.1-2.6,2.5-2.6L55.5,9c1.4,0,2.6,1.1,2.6,2.5v0.3c0,1.4-1.1,2.6-2.5,2.6l-11.7,0.2
						c-1.4,0-2.6-1.1-2.6-2.5V11.8z"/>
				</g>
			</g>
			<line class="st3" x1="32.2" y1="76.2" x2="23.9" y2="80.4"/>
			<line class="st3" x1="67.7" y1="76.2" x2="76" y2="80.4"/>
			<line class="st3" x1="50.9" y1="84.1" x2="50.9" y2="90.9"/>
		</g>
	</g>
	<g id="Academy">
		<g class="st1">
			<polygon class="st4" points="25.4,10.6 25.4,79.4 68.6,79.4 68.6,71.6 75.9,71.6 75.9,10.6 			"/>
			<polygon class="st4" points="68.6,79.4 75.9,71.6 68.6,71.6 			"/>
		</g>
		<polygon class="st5" points="44.7,95.3 40.6,92 36.6,95.3 36.6,5.5 44.7,5.5 		"/>
	</g>
	<g id="Blog">
		<g class="st1">
			<polygon class="st4" points="13.1,85.9 73.1,13.3 82,20.3 22,92.9 			"/>
			<rect x="13.5" y="85.4" transform="matrix(0.9933 -0.1159 0.1159 0.9933 -10.244 2.6243)" class="st4" width="7.9" height="8"/>
			<polygon class="st4" points="13.1,85.9 22.1,74.9 24.2,80.9 31.1,81.8 22,92.9 			"/>
			
				<rect x="75.6" y="7.2" transform="matrix(0.6204 -0.7843 0.7843 0.6204 20.5474 68.1219)" class="st4" width="10" height="11.3"/>
		</g>
	</g>
	<g id="Newsletter" class="st1">
		<g>
			<polygon class="st4" points="41.1,80.3 97.3,20.2 41.1,54 			"/>
			<polygon class="st4" points="3.2,43.7 97.3,20.2 76.4,65.9 50.2,56.8 41.1,80.3 31.9,50.3 			"/>
			<path class="st4" d="M41.1,80.3"/>
			<polyline class="st4" points="50.2,56.8 97.3,20.2 31.9,50.3 			"/>
			<path class="st4" d="M41.1,80.3"/>
		</g>
	</g>
</g>
<g id="Layer_2">
	<line class="st6" x1="8.6" y1="89.8" x2="89.5" y2="9"/>
	<line class="st6" x1="89.5" y1="89.8" x2="8.6" y2="9"/>
</g>
</svg>
